# Blender 4.1.1
# www.blender.org
mtllib 15.Small.Res.2st.mtl
o Cube
v 1.000000 1.000000 -1.000000
v 1.000000 -1.000000 -1.000000
v 1.000000 1.000000 1.000000
v 1.000000 -1.000000 1.000000
v -1.000000 1.000000 -1.000000
v -1.000000 -1.000000 -1.000000
v -1.000000 1.000000 1.000000
v -1.000000 -1.000000 1.000000
vn -0.0000 1.0000 -0.0000
vn -0.0000 -0.0000 1.0000
vn -1.0000 -0.0000 -0.0000
vn -0.0000 -1.0000 -0.0000
vn 1.0000 -0.0000 -0.0000
vn -0.0000 -0.0000 -1.0000
vt 0.625000 0.500000
vt 0.875000 0.500000
vt 0.875000 0.750000
vt 0.625000 0.750000
vt 0.375000 0.750000
vt 0.625000 1.000000
vt 0.375000 1.000000
vt 0.375000 0.000000
vt 0.625000 0.000000
vt 0.625000 0.250000
vt 0.375000 0.250000
vt 0.125000 0.500000
vt 0.375000 0.500000
vt 0.125000 0.750000
s 0
usemtl Material
f 1/1/1 5/2/1 7/3/1 3/4/1
f 4/5/2 3/4/2 7/6/2 8/7/2
f 8/8/3 7/9/3 5/10/3 6/11/3
f 6/12/4 2/13/4 4/5/4 8/14/4
f 2/13/5 1/1/5 3/4/5 4/5/5
f 6/11/6 5/10/6 1/1/6 2/13/6
o Cube.002
v -10.342196 8.416654 -18.687939
v 28.760729 7.556972 -27.067787
v -5.118805 7.774503 5.751862
v 33.984119 6.914821 -2.627988
v -13.748739 8.532072 -19.922169
v 31.364424 7.540255 -29.590031
v 37.390663 6.799402 -1.393756
v -7.722498 7.791220 8.274105
v -13.699488 10.397203 -19.883690
v 31.413675 9.405386 -29.551550
v 37.439919 8.664534 -1.355276
v -7.673246 9.656351 8.312584
v -13.699484 10.397203 -19.883690
v 31.413671 9.405386 -29.551548
v 37.439911 8.664534 -1.355275
v -7.673243 9.656351 8.312584
v -10.309801 10.282356 -18.655567
v 28.822863 9.422022 -27.041794
v 34.050228 8.779381 -2.583398
v -5.082436 9.639715 5.802826
v -9.770761 30.695515 -18.234421
v 29.361902 29.835178 -26.620647
v 34.589264 29.192539 -2.162251
v -4.543398 30.052876 6.223972
v -7.036465 34.941872 -5.910988
v 32.096199 34.081535 -14.297213
v -10.777958 -8.085535 -19.028397
v 28.324966 -8.945215 -27.408247
v 33.548355 -9.587368 -2.968447
v -5.554567 -8.727686 5.411404
v 33.048767 -12.959771 -32.168358
v -17.201162 -11.855021 -21.399677
v 33.167076 -8.479263 -32.075920
v 39.761177 -13.784980 -0.761539
v 39.879494 -9.304472 -0.669100
v -10.488749 -12.680230 10.007141
v -10.370434 -8.199724 10.099581
v -17.082850 -7.374515 -21.307238
v 5.266502 3.369680 3.416530
v -2.973058 -8.600234 4.863020
v -2.652378 3.543778 5.113565
v 4.945823 -8.774332 3.165984
vn -0.2089 0.0257 -0.9776
vn 0.9776 -0.0215 -0.2095
vn 0.2089 -0.0257 0.9776
vn -0.9776 0.0215 0.2095
vn -0.0264 -0.9994 -0.0206
vn 0.0264 0.9994 0.0206
vn -0.0027 0.9934 -0.1147
vn 0.0550 0.9863 0.1555
vn -0.0586 0.9975 0.0387
vn 0.1112 0.9938 0.0023
vt 0.418607 0.000000
vt 0.625000 0.000000
vt 0.625000 0.250000
vt 0.418607 0.250000
vt 0.625000 0.500000
vt 0.418607 0.500000
vt 0.420909 0.733526
vt 0.418607 0.750000
vt 0.625000 0.750000
vt 0.572795 0.733526
vt 0.572795 0.682898
vt 0.420909 0.682898
vt 0.625000 1.000000
vt 0.418607 1.000000
vt 0.375000 0.750000
vt 0.375000 1.000000
vt 0.375000 0.500000
vt 0.375000 0.250000
vt 0.375000 0.000000
s 1
f 35/15/7 9/16/7 10/17/7 36/18/7
f 36/18/8 10/17/8 12/19/8 37/20/8
f 48/21/9 38/22/9 37/20/9 12/19/9 11/23/9 49/24/9 47/25/9 50/26/9
f 49/24/9 11/23/9 38/22/9 48/21/9
f 38/22/10 11/23/10 9/27/10 35/28/10
f 11/23/11 12/19/11 15/19/11 16/23/11
f 14/17/7 13/16/7 17/16/7 18/17/7
f 10/17/11 9/16/11 13/16/11 14/17/11
f 9/27/11 11/23/11 16/23/11 13/27/11
f 12/19/11 10/17/11 14/17/11 15/19/11
f 17/27/12 20/23/12 24/23/12 21/27/12
f 13/27/10 16/23/10 20/23/10 17/27/10
f 15/19/8 14/17/8 18/17/8 19/19/8
f 16/23/9 15/19/9 19/19/9 20/23/9
f 21/27/12 24/23/12 28/23/12 25/27/12
f 19/19/12 18/17/12 22/17/12 23/19/12
f 28/23/9 27/19/9 31/19/9 32/23/9
f 23/19/12 22/17/12 26/17/12 27/19/12
f 24/23/12 23/19/12 27/19/12 28/23/12
f 22/17/12 21/16/12 25/16/12 26/17/12
f 26/17/7 25/16/7 29/16/7 30/17/7
f 25/27/10 28/23/10 32/23/10 29/27/10
f 27/19/8 26/17/8 30/17/8 31/19/8
f 29/27/10 32/23/10 33/27/10
f 31/19/8 30/17/8 34/19/8
f 37/20/13 38/22/13 45/22/13 43/20/13
f 35/15/14 36/18/14 41/18/14 46/15/14
f 44/29/10 45/22/10 46/28/10 40/30/10
f 42/31/9 43/20/9 45/22/9 44/29/9
f 39/32/8 41/18/8 43/20/8 42/31/8
f 40/33/7 46/15/7 41/18/7 39/32/7
f 36/18/15 37/20/15 43/20/15 41/18/15
f 38/22/16 35/28/16 46/28/16 45/22/16
o Roof
v -14.582935 30.801315 -17.203163
v 34.174080 29.729385 -27.651903
v 39.401443 29.086746 -3.193506
v -9.355574 30.158672 7.255234
v -11.848639 35.047672 -4.879728
v 36.908379 33.975742 -15.328468
v -14.663422 31.680103 -17.668888
v 34.093594 30.608173 -28.117626
v 39.527664 29.940121 -2.692044
v -9.229349 31.012051 7.756695
v 34.174080 29.729385 -27.651903
v -14.582935 30.801315 -17.203163
v -11.482069 35.429726 -3.208389
v -12.192726 35.517090 -6.533499
v -11.848627 35.048172 -4.879717
v -11.640068 35.640137 -3.967248
v -11.830605 35.730621 -4.865638
v -12.024673 35.687416 -5.766785
v 36.564289 34.445160 -16.982239
v 37.274948 34.357796 -13.657129
v 36.908386 33.976242 -15.328457
v 36.732342 34.615486 -16.215527
v 36.926411 34.658691 -15.314378
v 37.116947 34.568207 -14.415989
v 39.401443 29.086746 -3.193506
v -9.355574 30.158672 7.255234
v -14.663422 31.680103 -17.668888
v 34.093594 30.608173 -28.117626
v 39.527664 29.940121 -2.692044
v -9.229349 31.012051 7.756695
v -8.776138 30.123283 9.962692
v -8.902363 29.269905 9.461233
v -15.160486 30.908165 -19.909149
v 33.596527 29.836235 -30.357887
v 39.980877 29.051357 -0.486047
v 39.854652 28.197979 -0.987507
v 33.677017 28.957447 -29.892164
v -15.080000 30.029377 -19.443424
vn -0.0965 -0.9299 -0.3548
vn 0.0469 -0.9476 0.3161
vn -0.9776 0.0215 0.2095
vn 0.9776 -0.0215 -0.2095
vn -0.0000 -0.0000 -0.0000
vn 0.0965 0.9299 0.3548
vn 0.0752 0.9648 0.2519
vn 0.0415 0.9949 0.0914
vn 0.0112 0.9987 -0.0503
vn -0.0239 0.9770 -0.2118
vn -0.0469 0.9476 -0.3161
vn 0.1684 -0.5178 0.8388
vn -0.1945 -0.4732 -0.8592
vt 0.625000 0.750000
vt 0.625000 0.500000
vt 0.625000 0.250000
vt 0.625000 0.000000
vt 0.625000 0.250000
s 1
f 54/34/17 55/34/17 56/35/17 53/35/17
f 52/36/18 56/36/18 55/37/18 51/37/18
f 55/34/19 54/34/19 60/34/19 63/34/19 65/34/19
f 51/37/19 55/37/19 65/37/19 64/37/19 57/37/19
f 61/36/18 62/37/18 88/37/18 87/36/18
f 56/36/20 52/36/20 58/36/20 69/36/20 71/36/20
f 53/35/21 59/35/21 79/35/21 75/35/21
f 53/35/20 56/35/20 71/35/20 70/35/20 59/35/20
f 60/34/22 59/35/22 70/35/22 63/34/22
f 57/37/21 58/36/21 78/36/21 77/37/21
f 63/37/19 66/37/19 65/37/19
f 66/37/19 67/37/19 65/37/19
f 67/37/19 68/37/19 65/37/19
f 68/37/19 64/37/19 65/37/19
f 69/36/20 72/38/20 71/36/20
f 72/38/20 73/36/20 71/36/20
f 73/36/20 74/36/20 71/36/20
f 74/36/20 70/36/20 71/36/20
f 63/34/23 70/35/23 74/35/23 66/34/23
f 66/34/24 74/35/24 73/35/24 67/34/24
f 67/37/25 73/36/25 72/36/25 68/37/25
f 68/37/26 72/36/26 69/36/26 64/37/26
f 58/36/27 57/37/27 64/37/27 69/36/27
f 77/37/27 78/36/27 84/36/27 83/37/27
f 58/36/21 52/36/21 61/36/21 78/36/21
f 54/34/21 53/35/21 75/35/21 76/34/21
f 51/37/21 57/37/21 77/37/21 62/37/21
f 59/35/21 60/34/21 80/34/21 79/35/21
f 60/34/21 54/34/21 76/34/21 80/34/21
f 52/36/21 51/37/21 62/37/21 61/36/21
f 82/34/28 86/35/28 85/35/28 81/34/28
f 87/36/29 88/37/29 83/37/29 84/36/29
f 78/36/20 61/36/20 87/36/20 84/36/20
f 75/35/20 79/35/20 85/35/20 86/35/20
f 80/34/19 76/34/19 82/34/19 81/34/19
f 79/35/22 80/34/22 81/34/22 85/35/22
f 62/37/19 77/37/19 83/37/19 88/37/19
f 76/34/17 75/35/17 86/35/17 82/34/17
o Cube.004
v 26.068750 23.246264 -7.104444
v 26.464622 38.237850 -6.795149
v 30.956615 23.138803 -8.151924
v 31.352488 38.130390 -7.842629
v 27.113428 23.117834 -2.216483
v 27.509300 38.109417 -1.907188
v 32.001293 23.010374 -3.263964
v 32.397163 38.001957 -2.954669
v 23.241123 38.366020 -8.881913
v 33.440720 38.141785 -11.067708
v 35.620663 37.873787 -0.867915
v 25.421068 38.098022 1.317880
v 23.301113 40.637848 -8.835042
v 33.500710 40.413609 -11.020838
v 35.680653 40.145611 -0.821045
v 25.481058 40.369850 1.364751
v 23.272724 39.562801 -8.857222
v 33.472321 39.338562 -11.043017
v 35.652267 39.070564 -0.843225
v 25.452671 39.294804 1.342571
vn -0.2089 0.0257 -0.9776
vn 0.9776 -0.0215 -0.2095
vn 0.2089 -0.0257 0.9776
vn -0.9776 0.0215 0.2095
vn -0.0264 -0.9994 -0.0206
vn 0.0264 0.9994 0.0206
vt 0.375000 0.000000
vt 0.625000 0.000000
vt 0.625000 0.250000
vt 0.375000 0.250000
vt 0.625000 0.500000
vt 0.375000 0.500000
vt 0.625000 0.750000
vt 0.375000 0.750000
vt 0.625000 1.000000
vt 0.375000 1.000000
vt 0.125000 0.500000
vt 0.125000 0.750000
vt 0.875000 0.500000
vt 0.875000 0.750000
s 1
f 89/39/30 90/40/30 92/41/30 91/42/30
f 91/42/31 92/41/31 96/43/31 95/44/31
f 95/44/32 96/43/32 94/45/32 93/46/32
f 93/46/33 94/45/33 90/47/33 89/48/33
f 91/49/34 95/44/34 93/46/34 89/50/34
f 92/41/34 90/40/34 97/40/34 98/41/34
f 97/47/33 100/45/33 104/45/33 101/47/33
f 90/47/34 94/45/34 100/45/34 97/47/34
f 96/43/34 92/41/34 98/41/34 99/43/34
f 94/45/34 96/43/34 99/43/34 100/45/34
f 104/45/30 103/43/30 107/43/30 108/45/30
f 99/43/31 98/41/31 102/41/31 103/43/31
f 100/45/32 99/43/32 103/43/32 104/45/32
f 98/41/30 97/40/30 101/40/30 102/41/30
f 107/43/35 106/51/35 105/52/35 108/45/35
f 102/41/32 101/40/32 105/40/32 106/41/32
f 101/47/31 104/45/31 108/45/31 105/47/31
f 103/43/33 102/41/33 106/41/33 107/43/33
o dood
v -2.830864 -8.617718 5.528361
v -2.510185 3.526294 5.778906
v 5.088017 -8.791815 3.831326
v 5.408697 3.352197 4.081871
v 4.515898 -8.177742 3.969736
v 4.804829 2.763978 4.195477
v -1.938065 2.912221 5.640495
v -2.226996 -8.029499 5.414755
v 4.525820 2.798279 2.890018
v 4.236889 -8.143440 2.664278
v -2.506005 -7.995198 4.109296
v -2.217074 2.946522 4.335036
v 4.625039 2.786081 3.354254
v 4.336107 -8.155639 3.128513
v -2.406786 -8.007396 4.573532
v -2.117855 2.934324 4.799272
v -0.245998 -1.774597 4.850814
v -0.092293 -1.889987 4.812234
v -0.347298 -3.031361 2.845795
v -0.496385 -2.100475 2.854982
v 0.186114 -2.964941 4.772206
v -0.602236 -1.646298 4.945032
v 29.246750 -12.468953 31.482725
v -0.951598 -1.758734 2.969243
v 29.381084 -12.510611 31.375597
v -0.418186 -1.692312 4.895656
v -0.425065 -3.209170 2.873460
v 0.108347 -3.142750 4.799871
v -0.534930 -3.367511 2.909339
v -0.001519 -3.301090 4.835750
v -0.625705 -1.956408 2.885821
v -0.672671 -3.500296 2.952058
v -0.139259 -3.433876 4.878469
v -0.832994 -3.602425 2.999972
v -0.299582 -3.536005 4.926383
v -1.009738 -3.669972 3.051239
v -0.476327 -3.603551 4.977650
v -1.196112 -3.700339 3.103892
v -0.662700 -3.633919 5.030303
v -1.384950 -3.692365 3.155906
v 29.481209 -12.524386 31.798294
v 29.615547 -12.566043 31.691162
v -0.779411 -1.841018 2.924404
v -0.851538 -3.625945 5.082317
v -1.569000 -3.646351 3.205282
v -1.035589 -3.579930 5.131693
v -1.741189 -3.564066 3.250122
v -1.207777 -3.497645 5.176535
v -1.894891 -3.448672 3.288704
v -1.361479 -3.382251 5.215115
v 0.037027 -2.034055 4.781393
v -0.396424 -2.267678 2.833068
v 0.136988 -2.201258 4.759479
v -2.024211 -3.304607 3.319545
v -1.490799 -3.238186 5.245955
v -2.124173 -3.137403 3.341459
v -1.590762 -3.070983 5.267870
v -2.190938 -2.953489 3.353603
v -1.657526 -2.887068 5.280015
v -2.221937 -2.759931 3.355514
v -1.688525 -2.693511 5.281924
v -2.215982 -2.564167 3.347114
v -1.682570 -2.497747 5.273525
v -2.173300 -2.373722 3.328730
v -1.639889 -2.307302 5.255141
v -2.095533 -2.195912 3.301065
v -1.562121 -2.129491 5.227478
v -1.985668 -2.037571 3.265186
v -1.452254 -1.971150 5.191596
v -1.847927 -1.904784 3.222467
v -1.314515 -1.838363 5.148880
v -1.687604 -1.802657 3.174555
v -0.329660 -2.451591 2.820922
v -0.298661 -2.645150 2.819011
v 0.203752 -2.385171 4.747334
v -1.154193 -1.736236 5.100965
v -1.510860 -1.735110 3.123286
v -0.977448 -1.668690 5.049697
v -1.324486 -1.704741 3.070632
v -0.791072 -1.638321 4.997043
v -1.135648 -1.712718 3.018619
v 0.234751 -2.578730 4.745422
v -0.304616 -2.840915 2.827411
v 0.228796 -2.774494 4.753822
vn 0.0264 0.9994 0.0206
vn 0.2089 -0.0257 0.9776
vn 0.9776 -0.0215 -0.2095
vn -0.0264 -0.9994 -0.0206
vn -0.9776 0.0215 0.2095
vn -0.1581 0.9874 0.0097
vn 0.6597 -0.7349 -0.1573
vn 0.0304 0.9986 -0.0428
vn 0.2719 0.9618 -0.0331
vn 0.5099 -0.8529 -0.1118
vn 0.9633 -0.0407 -0.2653
vn 0.3406 -0.9382 -0.0620
vn 0.1581 -0.9874 -0.0097
vn 0.2177 0.9715 -0.0938
vn -0.0304 -0.9986 0.0428
vn 0.3967 0.9070 -0.1411
vn 0.5604 0.8077 -0.1830
vn 0.7026 0.6774 -0.2179
vn -0.5099 0.8529 0.1118
vn 0.8178 0.5210 -0.2444
vn -0.2177 -0.9715 0.0938
vn 0.9016 0.3446 -0.2615
vn -0.3967 -0.9070 0.1411
vn 0.9507 0.1549 -0.2686
vn -0.5605 -0.8077 0.1830
vn -0.7026 -0.6774 0.2179
vn -0.8178 -0.5210 0.2444
vn 0.9389 -0.2347 -0.2519
vn -0.9016 -0.3446 0.2615
vn -0.9507 -0.1549 0.2686
vn -0.9633 0.0407 0.2653
vn -0.9389 0.2347 0.2519
vn -0.8783 0.4197 0.2287
vn -0.7841 0.5886 0.1968
vn -0.2667 -0.0332 -0.9632
vn -0.3406 0.9382 0.0620
vn 0.8783 -0.4197 -0.2287
vn -0.6597 0.7349 0.1573
vn 0.7841 -0.5886 -0.1968
vn 0.2667 0.0332 0.9632
vt 0.387375 0.731437
vt 0.387375 0.518563
vt 0.375000 0.500000
vt 0.625000 0.500000
vt 0.612625 0.518563
vt 0.625000 0.750000
vt 0.612625 0.731437
vt 0.375000 0.750000
vt 1.000000 0.500000
vt 1.000000 1.000000
vt 0.968750 1.000000
vt 0.968750 0.500000
vt 0.937500 1.000000
vt 0.937500 0.500000
vt 0.906250 1.000000
vt 0.906250 0.500000
vt 0.437500 1.000000
vt 0.468750 1.000000
vt 0.875000 1.000000
vt 0.875000 0.500000
vt 0.843750 1.000000
vt 0.843750 0.500000
vt 0.812500 1.000000
vt 0.812500 0.500000
vt 0.781250 1.000000
vt 0.781250 0.500000
vt 0.750000 1.000000
vt 0.750000 0.500000
vt 0.718750 1.000000
vt 0.718750 0.500000
vt 0.687500 1.000000
vt 0.687500 0.500000
vt 0.656250 1.000000
vt 0.656250 0.500000
vt 0.625000 1.000000
vt 0.593750 1.000000
vt 0.593750 0.500000
vt 0.562500 1.000000
vt 0.562500 0.500000
vt 0.531250 1.000000
vt 0.531250 0.500000
vt 0.500000 1.000000
vt 0.500000 0.500000
vt 0.468750 0.500000
vt 0.437500 0.500000
vt 0.406250 1.000000
vt 0.406250 0.500000
vt 0.375000 1.000000
vt 0.343750 1.000000
vt 0.343750 0.500000
vt 0.312500 1.000000
vt 0.312500 0.500000
vt 0.281250 1.000000
vt 0.281250 0.500000
vt 0.250000 1.000000
vt 0.250000 0.500000
vt 0.218750 1.000000
vt 0.218750 0.500000
vt 0.187500 1.000000
vt 0.187500 0.500000
vt 0.156250 1.000000
vt 0.156250 0.500000
vt 0.125000 1.000000
vt 0.125000 0.500000
vt 0.419706 0.080294
vt 0.449553 0.116663
vt 0.471731 0.158156
vt 0.485388 0.203178
vt 0.490000 0.250000
vt 0.485388 0.296822
vt 0.471731 0.341844
vt 0.449553 0.383337
vt 0.419706 0.419706
vt 0.383337 0.449553
vt 0.341844 0.471731
vt 0.296822 0.485388
vt 0.250000 0.490000
vt 0.203178 0.485388
vt 0.158156 0.471731
vt 0.116663 0.449553
vt 0.080294 0.419706
vt 0.050447 0.383337
vt 0.028269 0.341844
vt 0.014612 0.296822
vt 0.010000 0.250000
vt 0.014612 0.203178
vt 0.028269 0.158156
vt 0.050447 0.116663
vt 0.080294 0.080294
vt 0.116663 0.050447
vt 0.158156 0.028269
vt 0.203178 0.014612
vt 0.250000 0.010000
vt 0.296822 0.014612
vt 0.341844 0.028269
vt 0.383337 0.050447
vt 0.093750 1.000000
vt 0.093750 0.500000
vt 0.062500 1.000000
vt 0.062500 0.500000
vt 0.031250 1.000000
vt 0.031250 0.500000
vt 0.000000 1.000000
vt 0.000000 0.500000
vt 0.949553 0.116663
vt 0.919706 0.080294
vt 0.883337 0.050447
vt 0.841844 0.028269
vt 0.796822 0.014612
vt 0.750000 0.010000
vt 0.703178 0.014612
vt 0.658156 0.028269
vt 0.616663 0.050447
vt 0.580294 0.080294
vt 0.550447 0.116663
vt 0.528269 0.158156
vt 0.514611 0.203178
vt 0.510000 0.250000
vt 0.514611 0.296822
vt 0.528269 0.341844
vt 0.550447 0.383337
vt 0.580294 0.419706
vt 0.616663 0.449553
vt 0.658156 0.471731
vt 0.703178 0.485388
vt 0.750000 0.490000
vt 0.796822 0.485388
vt 0.841844 0.471731
vt 0.883337 0.449553
vt 0.919706 0.419706
vt 0.949553 0.383337
vt 0.971731 0.341844
vt 0.985389 0.296822
vt 0.990000 0.250000
vt 0.985389 0.203178
vt 0.971731 0.158156
s 1
f 116/53/36 113/54/36 118/54/36 119/53/36
f 111/55/37 112/56/37 114/57/37 113/54/37
f 112/56/37 110/58/37 115/59/37 114/57/37
f 110/58/37 109/60/37 116/53/37 115/59/37
f 109/60/37 111/55/37 113/54/37 116/53/37
f 118/54/38 117/57/38 121/57/38 122/54/38
f 114/57/39 115/59/39 120/59/39 117/57/39
f 113/54/40 114/57/40 117/57/40 118/54/40
f 115/59/38 116/53/38 119/53/38 120/59/38
f 122/54/37 121/57/37 124/59/37 123/53/37
f 120/59/40 119/53/40 123/53/40 124/59/40
f 119/53/39 118/54/39 122/54/39 123/53/39
f 117/57/36 120/59/36 124/59/36 121/57/36
f 188/61/41 187/62/41 185/63/41 186/64/41
f 141/64/42 140/63/42 137/65/42 138/66/42
f 130/66/43 189/65/43 187/67/43 188/68/43
f 133/69/44 131/70/44 149/70/44 150/69/44
f 143/68/45 142/67/45 140/71/45 141/72/45
f 192/72/46 191/71/46 182/73/46 190/74/46
f 145/74/47 144/73/47 142/75/47 143/76/47
f 147/76/48 146/75/48 144/77/48 145/78/48
f 134/78/49 132/77/49 189/79/49 130/80/49
f 152/80/50 148/79/50 146/81/50 147/82/50
f 125/82/51 151/81/51 132/83/51 134/84/51
f 126/84/52 139/83/52 151/85/52 125/86/52
f 159/86/53 128/85/53 139/87/53 126/56/53
f 184/56/54 180/87/54 178/88/54 179/89/54
f 161/89/55 160/88/55 128/90/55 159/91/55
f 154/91/56 153/90/56 148/92/56 152/93/56
f 183/93/57 181/92/57 160/94/57 161/95/57
f 156/95/58 155/94/58 153/70/58 154/96/58
f 190/96/59 182/70/59 181/69/59 183/97/59
f 158/97/60 157/69/60 155/98/60 156/99/60
f 163/99/61 162/98/61 157/100/61 158/55/61
f 165/55/62 164/100/62 162/101/62 163/102/62
f 129/102/63 127/101/63 191/103/63 192/104/63
f 167/104/64 166/103/64 164/105/64 165/106/64
f 169/106/65 168/105/65 166/107/65 167/108/65
f 171/108/66 170/107/66 168/109/66 169/110/66
f 173/110/67 172/109/67 170/111/67 171/112/67
f 175/112/68 174/111/68 172/113/68 173/114/68
f 177/114/69 176/113/69 174/115/69 175/116/69
f 180/117/70 185/118/70 187/119/70 189/120/70 132/121/70 151/122/70 139/123/70 128/124/70 160/125/70 181/126/70 182/127/70 191/128/70 127/129/70 135/130/70 137/131/70 140/132/70 142/133/70 144/134/70 146/135/70 148/136/70 153/137/70 155/138/70 157/139/70 162/140/70 164/141/70 166/142/70 168/143/70 170/144/70 172/145/70 174/146/70 176/147/70 178/148/70
f 186/116/71 185/115/71 180/149/71 184/150/71
f 136/150/72 135/149/72 127/151/72 129/152/72
f 179/152/73 178/151/73 176/153/73 177/154/73
f 138/154/74 137/153/74 135/155/74 136/156/74
f 186/157/75 184/158/75 179/159/75 177/160/75 175/161/75 173/162/75 171/163/75 169/164/75 167/165/75 165/166/75 163/167/75 158/168/75 156/169/75 154/170/75 152/171/75 147/172/75 145/173/75 143/174/75 141/175/75 138/176/75 136/177/75 129/178/75 192/179/75 190/180/75 183/181/75 161/182/75 159/183/75 126/184/75 125/185/75 134/186/75 130/187/75 188/188/75
