# Blender 4.1.1
# www.blender.org
mtllib 15.small.resi.mtl
o Cube
v 1.000000 1.000000 -1.000000
v 1.000000 -1.000000 -1.000000
v 1.000000 1.000000 1.000000
v 1.000000 -1.000000 1.000000
v -1.000000 1.000000 -1.000000
v -1.000000 -1.000000 -1.000000
v -1.000000 1.000000 1.000000
v -1.000000 -1.000000 1.000000
vn -0.0000 1.0000 -0.0000
vn -0.0000 -0.0000 1.0000
vn -1.0000 -0.0000 -0.0000
vn -0.0000 -1.0000 -0.0000
vn 1.0000 -0.0000 -0.0000
vn -0.0000 -0.0000 -1.0000
vt 0.625000 0.500000
vt 0.875000 0.500000
vt 0.875000 0.750000
vt 0.625000 0.750000
vt 0.375000 0.750000
vt 0.625000 1.000000
vt 0.375000 1.000000
vt 0.375000 0.000000
vt 0.625000 0.000000
vt 0.625000 0.250000
vt 0.375000 0.250000
vt 0.125000 0.500000
vt 0.375000 0.500000
vt 0.125000 0.750000
s 0
usemtl Material
f 1/1/1 5/2/1 7/3/1 3/4/1
f 4/5/2 3/4/2 7/6/2 8/7/2
f 8/8/3 7/9/3 5/10/3 6/11/3
f 6/12/4 2/13/4 4/5/4 8/14/4
f 2/13/5 1/1/5 3/4/5 4/5/5
f 6/11/6 5/10/6 1/1/6 2/13/6
o Cube.001
v 14.718282 13.269075 -14.887714
v 14.718282 -11.730925 -14.887712
v 14.718282 13.269077 15.112284
v 14.718282 -11.730923 15.112286
v -15.281716 13.269075 -14.887714
v -15.281716 -11.730925 -14.887712
v -15.281716 13.269077 15.112284
v -15.281716 -11.730923 15.112286
v -0.281718 16.874714 15.112284
v -0.281718 16.874710 -14.887714
vn -0.0000 -0.0000 -1.0000
vn -0.0000 -0.0000 1.0000
vn -1.0000 -0.0000 -0.0000
vn 1.0000 -0.0000 -0.0000
vt 0.625000 0.500000
vt 0.625000 0.250000
vt 0.375000 0.750000
vt 0.625000 0.750000
vt 0.625000 1.000000
vt 0.375000 1.000000
vt 0.375000 0.000000
vt 0.625000 0.000000
vt 0.375000 0.250000
vt 0.375000 0.500000
s 1
usemtl Material.001
f 9/15/7 13/16/7 18/15/7
f 12/17/8 11/18/8 15/19/8 16/20/8
f 16/21/9 15/22/9 13/16/9 14/23/9
f 10/24/10 9/15/10 11/18/10 12/17/10
f 14/23/7 13/16/7 9/15/7 10/24/7
f 15/19/8 11/18/8 17/19/8
o Plane
v 13.879597 12.832881 4.094351
v 13.879599 -12.167119 4.094351
v 13.879597 12.832881 -12.905649
v 13.879599 -12.167119 -12.905649
v 28.271549 7.290201 -12.940025
v 28.271549 7.290201 4.059975
v 28.306881 -12.167118 4.094352
v 28.306881 -12.167118 -12.905647
v 11.796745 13.635037 -15.360971
v 11.796745 13.635037 6.559625
v 30.354404 6.488046 -15.405300
v 30.354404 6.488046 6.515297
v 12.186728 14.647652 -15.360971
v 12.186727 14.647652 6.559625
v 30.744385 7.500660 -15.405300
v 30.744385 7.500660 6.515297
vn -1.0000 -0.0000 -0.0000
vn 1.0000 0.0018 -0.0000
vn -0.3594 -0.9332 -0.0000
vn -0.0013 -0.0008 -1.0000
vn 0.0013 0.0008 1.0000
vn 0.0021 -0.0008 1.0000
vn 0.3594 0.9332 -0.0000
vn -0.9332 0.3594 -0.0000
vn -0.0021 0.0008 -1.0000
vn 0.9332 -0.3594 -0.0000
vt 0.000000 0.000000
vt 0.000000 1.000000
vt 1.000000 1.000000
vt 1.000000 0.000000
s 1
f 19/25/11 21/26/11 22/27/11 20/28/11
f 24/25/12 25/28/12 26/27/12 23/26/12
f 21/26/13 19/25/13 28/25/13 27/26/13
f 22/27/14 21/26/14 23/26/14 26/27/14
f 19/25/15 20/28/15 25/28/15 24/25/15
f 28/25/16 30/25/16 34/25/16 32/25/16
f 23/26/13 21/26/13 27/26/13 29/26/13
f 19/25/13 24/25/13 30/25/13 28/25/13
f 24/25/13 23/26/13 29/26/13 30/25/13
f 31/26/17 32/25/17 34/25/17 33/26/17
f 27/26/18 28/25/18 32/25/18 31/26/18
f 29/26/19 27/26/19 31/26/19 33/26/19
f 30/25/20 29/26/20 33/26/20 34/25/20
o Cube.002
v 14.718282 13.269075 -14.887714
v 14.718282 13.269077 15.112284
v -15.281716 13.269075 -14.887714
v -15.281716 13.269077 15.112284
v -0.281718 16.874714 15.112284
v -0.281718 16.874710 -14.887714
v 16.820000 13.100676 -16.989431
v 16.820000 13.100677 17.214003
v -17.383434 13.100677 17.214003
v -17.383434 13.100676 -16.989431
v -0.281718 17.211510 -16.989433
v -0.281718 17.211514 17.214001
v 17.265152 14.386719 -16.989433
v 17.265152 14.386721 17.214001
v -17.828587 14.386721 17.214001
v -17.828587 14.386719 -16.989433
v -2.498569 18.024002 -16.989433
v 1.935134 18.024002 -16.989433
v -0.281718 17.212132 -16.989433
v -1.481469 18.185249 -16.989433
v -0.281717 18.241871 -16.989433
v 0.918034 18.185249 -16.989433
v 1.935134 18.024006 17.214001
v -2.498569 18.024006 17.214001
v -0.281718 17.212135 17.214001
v 0.918034 18.185253 17.214001
v -0.281717 18.241875 17.214001
v -1.481469 18.185253 17.214001
vn 0.2337 -0.9723 -0.0000
vn -0.2337 -0.9723 -0.0000
vn -0.0000 -0.0000 1.0000
vn 0.9450 -0.3271 -0.0000
vn 0.2309 -0.9607 -0.1540
vn -0.2309 -0.9607 -0.1540
vn 0.0799 -0.9968 -0.0000
vn 0.2309 -0.9607 0.1540
vn -0.2309 -0.9607 0.1540
vn -0.0799 -0.9968 -0.0000
vn -0.0000 -0.0000 -1.0000
vn -0.2309 0.9730 -0.0000
vn -0.9450 -0.3271 -0.0000
vn -0.1566 0.9877 -0.0000
vn -0.0471 0.9989 -0.0000
vn 0.0471 0.9989 -0.0000
vn 0.1566 0.9877 -0.0000
vn 0.2309 0.9730 -0.0000
vt 0.625000 0.250000
vt 0.625000 0.000000
vt 0.625000 0.750000
vt 0.625000 0.500000
vt 0.625000 0.250000
vt 0.625000 0.000000
s 1
usemtl Material.001
f 37/29/21 40/29/21 39/30/21 38/30/21
f 36/31/22 39/31/22 40/32/22 35/32/22
f 46/31/23 42/31/23 48/31/23 57/31/23 59/31/23
f 42/31/24 41/32/24 47/32/24 48/31/24
f 40/29/25 37/29/25 44/29/25 45/29/25
f 35/32/26 40/32/26 45/32/26 41/32/26
f 37/29/27 38/30/27 43/30/27 44/29/27
f 38/30/28 39/30/28 46/30/28 43/30/28
f 39/31/29 36/31/29 42/31/29 46/31/29
f 36/31/30 35/32/30 41/32/30 42/31/30
f 45/29/31 44/29/31 50/29/31 51/29/31 53/29/31
f 41/32/31 45/32/31 53/32/31 52/32/31 47/32/31
f 50/29/32 49/30/32 58/30/32 51/29/32
f 44/29/33 43/30/33 49/30/33 50/29/33
f 43/30/23 46/30/23 59/30/23 58/30/23 49/30/23
f 51/29/31 54/33/31 53/29/31
f 54/33/31 55/29/31 53/29/31
f 55/29/31 56/29/31 53/29/31
f 56/29/31 52/29/31 53/29/31
f 57/30/23 60/34/23 59/30/23
f 60/34/23 61/30/23 59/30/23
f 61/30/23 62/30/23 59/30/23
f 62/30/23 58/30/23 59/30/23
f 51/29/34 58/30/34 62/30/34 54/29/34
f 54/29/35 62/30/35 61/30/35 55/29/35
f 55/32/36 61/31/36 60/31/36 56/32/36
f 56/32/37 60/31/37 57/31/37 52/32/37
f 48/31/38 47/32/38 52/32/38 57/31/38
o Plane.001
v -10.538572 -11.621275 13.987832
v 4.461427 -11.621275 13.987832
v -10.538572 13.378725 13.987836
v 4.461427 13.378725 13.987836
v -10.538572 13.378725 16.410839
v -10.538572 -11.621275 16.410835
v 4.461427 -11.621275 16.410835
v 4.461427 13.378725 16.410839
vn -0.0000 -0.0000 1.0000
vn 1.0000 -0.0000 -0.0000
vn -1.0000 -0.0000 -0.0000
vn -0.0000 1.0000 -0.0000
vn -0.0000 -1.0000 -0.0000
vt 0.000000 0.000000
vt 1.000000 0.000000
vt 1.000000 1.000000
vt 0.000000 1.000000
s 1
f 68/35/39 69/36/39 70/37/39 67/38/39
f 64/36/40 66/37/40 70/37/40 69/36/40
f 65/38/41 63/35/41 68/35/41 67/38/41
f 66/37/42 65/38/42 67/38/42 70/37/42
f 63/35/43 64/36/43 69/36/43 68/35/43
o Cube.003
v 10.485666 5.668015 -7.593097
v 10.485666 20.668015 -7.593098
v 10.485666 5.668015 -13.593098
v 10.485666 20.668015 -13.593098
v 16.485666 5.668015 -7.593097
v 16.485666 20.668015 -7.593098
v 16.485666 5.668015 -13.593098
v 16.485666 20.668015 -13.593098
v 8.763317 20.668015 -5.870749
v 8.763317 20.668015 -15.315447
v 18.208015 20.668015 -15.315447
v 18.208015 20.668015 -5.870749
v 8.763317 22.418894 -5.870749
v 8.763317 22.418894 -15.315447
v 18.208015 22.418894 -15.315447
v 18.208015 22.418894 -5.870749
v 8.763317 21.863895 -5.870749
v 8.763317 21.863895 -15.315447
v 18.208015 21.863895 -15.315447
v 18.208015 21.863895 -5.870749
vn -1.0000 -0.0000 -0.0000
vn -0.0000 -0.0000 -1.0000
vn 1.0000 -0.0000 -0.0000
vn -0.0000 -0.0000 1.0000
vn -0.0000 -1.0000 -0.0000
vn -0.0000 1.0000 -0.0000
vt 0.375000 0.000000
vt 0.625000 0.000000
vt 0.625000 0.250000
vt 0.375000 0.250000
vt 0.625000 0.500000
vt 0.375000 0.500000
vt 0.625000 0.750000
vt 0.375000 0.750000
vt 0.625000 1.000000
vt 0.375000 1.000000
vt 0.875000 0.500000
vt 0.875000 0.750000
s 1
f 71/39/44 72/40/44 74/41/44 73/42/44
f 73/42/45 74/41/45 78/43/45 77/44/45
f 77/44/46 78/43/46 76/45/46 75/46/46
f 75/46/47 76/45/47 72/47/47 71/48/47
f 74/41/48 72/40/48 79/40/48 80/41/48
f 79/47/47 82/45/47 86/45/47 83/47/47
f 72/47/48 76/45/48 82/45/48 79/47/48
f 78/43/48 74/41/48 80/41/48 81/43/48
f 76/45/48 78/43/48 81/43/48 82/45/48
f 86/45/44 85/43/44 89/43/44 90/45/44
f 81/43/45 80/41/45 84/41/45 85/43/45
f 82/45/46 81/43/46 85/43/46 86/45/46
f 80/41/44 79/40/44 83/40/44 84/41/44
f 89/43/49 88/49/49 87/50/49 90/45/49
f 84/41/46 83/40/46 87/40/46 88/41/46
f 83/47/45 86/45/45 90/45/45 87/47/45
f 85/43/47 84/41/47 88/41/47 89/43/47
